<svg width="17" height="15" viewBox="0 0 17 15" fill="none" xmlns="http://www.w3.org/2000/svg">
<g clip-path="url(#clip0_61385:198)">
<path d="M8.39111 0.570374C3.75759 0.570374 0 3.75145 0 7.6756C0 10.8142 2.40435 13.4769 5.74024 14.4173C6.15984 14.4827 6.313 14.2633 6.313 14.0749C6.313 13.9059 6.30566 13.4592 6.30146 12.8665C3.96739 13.2956 3.47435 11.9138 3.47435 11.9138C3.09356 11.0929 2.54282 10.8744 2.54282 10.8744C1.78019 10.4338 2.59947 10.4427 2.59947 10.4427C3.44183 10.4931 3.88452 11.1751 3.88452 11.1751C4.63352 12.2606 5.84933 11.9474 6.32769 11.7652C6.40322 11.3061 6.62036 10.9929 6.86059 10.8151C4.99753 10.6355 3.03796 10.026 3.03796 7.30407C3.03796 6.52826 3.36525 5.89399 3.90235 5.39683C3.81528 5.21726 3.52785 4.49453 3.98418 3.51703C3.98418 3.51703 4.68912 3.32595 6.29202 4.24507C6.96129 4.0876 7.67882 4.00887 8.39321 4.00622C9.10549 4.00976 9.82407 4.0876 10.4944 4.24595C12.0962 3.32683 12.8001 3.51791 12.8001 3.51791C13.2575 4.4963 12.9701 5.21814 12.8841 5.39772C13.4222 5.89487 13.7464 6.52914 13.7464 7.30495C13.7464 10.034 11.7847 10.6346 9.91533 10.8107C10.2164 11.0301 10.485 11.4635 10.485 12.1261C10.485 13.0762 10.4745 13.8423 10.4745 14.0749C10.4745 14.2651 10.6255 14.4863 11.0514 14.4164C14.3821 13.4751 16.7843 10.8133 16.7843 7.6756C16.7843 3.75145 13.0267 0.570374 8.39111 0.570374Z" fill="#C4C4CC"/>
</g>
<defs>
<clipPath id="clip0_61385:198">
<rect width="16.7843" height="14.1538" fill="white" transform="translate(0 0.423065)"/>
</clipPath>
</defs>
</svg>
